<?xml version="1.0" encoding="utf-8"?>
<!-- Generator: Adobe Illustrator 19.2.1, SVG Export Plug-In . SVG Version: 6.00 Build 0)  -->
<svg version="1.0" id="Слой_1" xmlns="http://www.w3.org/2000/svg" xmlns:xlink="http://www.w3.org/1999/xlink" x="0px" y="0px"
	 viewBox="0 0 87.6 54.1" style="enable-background:new 0 0 87.6 54.1;" xml:space="preserve">
<style type="text/css">
	.st0{fill:url(#SVGID_1_);}
	.st1{fill:url(#SVGID_2_);}
	.st2{fill:url(#SVGID_3_);}
	.st3{fill:url(#SVGID_4_);}
	.st4{fill:url(#SVGID_5_);}
	.st5{fill:url(#SVGID_6_);}
	.st6{fill:url(#SVGID_7_);}
	.st7{fill:url(#SVGID_8_);}
	.st8{fill:url(#SVGID_9_);}
	.st9{fill:url(#SVGID_10_);}
	.st10{fill:url(#SVGID_11_);}
	.st11{fill:url(#SVGID_12_);}
	.st12{fill:url(#SVGID_13_);}
	.st13{fill:url(#SVGID_14_);}
	.st14{fill:url(#SVGID_15_);}
	.st15{fill:url(#SVGID_16_);}
</style>
<g>
	
		<image style="overflow:visible;opacity:0.71;enable-background:new    ;" width="2488" height="2979" xlink:href="85AE7D9A.png"  transform="matrix(1.814269e-002 0 0 1.816334e-002 0 0)">
	</image>
	<g>
		<g>
			
				<linearGradient id="SVGID_1_" gradientUnits="userSpaceOnUse" x1="15.1308" y1="773.575" x2="15.1308" y2="738.6272" gradientTransform="matrix(1 0 0 -1 0 783.4433)">
				<stop  offset="0" style="stop-color:#C9A75F"/>
				<stop  offset="1" style="stop-color:#413422"/>
			</linearGradient>
			<path class="st0" d="M15.8,31.5c-1.1,0-1.8-1-1.8-2.3c0-1.3,0.7-2.3,1.8-2.3c0.8,0,1.4,0.5,1.7,1.2v-1.8
				c-0.3-0.2-0.8-0.4-1.6-0.4c-2.1,0-3.2,1.7-3.2,3.4c0,1.6,0.9,3.2,3,3.2c0.8,0,1.5-0.4,1.9-0.9v-1.1
				C17.1,31.2,16.4,31.5,15.8,31.5z"/>
			
				<linearGradient id="SVGID_2_" gradientUnits="userSpaceOnUse" x1="20.4259" y1="773.575" x2="20.4259" y2="738.6272" gradientTransform="matrix(1 0 0 -1 0 783.4433)">
				<stop  offset="0" style="stop-color:#C9A75F"/>
				<stop  offset="1" style="stop-color:#413422"/>
			</linearGradient>
			<path class="st1" d="M20.5,27.8c-1.3,0-2.2,1-2.2,2.4c0,1.3,0.8,2.3,2.1,2.3c1.3,0,2.2-1.1,2.2-2.5
				C22.6,28.8,21.8,27.8,20.5,27.8z M20.5,31.7c-0.7,0-1.1-0.8-1.1-1.6c0-0.8,0.3-1.4,0.9-1.4c0.7,0,1.1,0.8,1.1,1.6
				C21.4,31.1,21.1,31.7,20.5,31.7z"/>
			
				<linearGradient id="SVGID_3_" gradientUnits="userSpaceOnUse" x1="24.9706" y1="773.575" x2="24.9706" y2="738.6272" gradientTransform="matrix(1 0 0 -1 0 783.4433)">
				<stop  offset="0" style="stop-color:#C9A75F"/>
				<stop  offset="1" style="stop-color:#413422"/>
			</linearGradient>
			<path class="st2" d="M26,31.6h-1.2l2-3.6h-3.5v1.5c0-0.1,0.2-0.8,0.9-0.8h0.9l-2,3.7h3.7v-1.5C26.8,31,26.7,31.6,26,31.6z"/>
			
				<linearGradient id="SVGID_4_" gradientUnits="userSpaceOnUse" x1="30.0232" y1="773.575" x2="30.0232" y2="738.6272" gradientTransform="matrix(1 0 0 -1 0 783.4433)">
				<stop  offset="0" style="stop-color:#C9A75F"/>
				<stop  offset="1" style="stop-color:#413422"/>
			</linearGradient>
			<path class="st3" d="M31.3,26.5c0,0.2-0.1,0.4-0.3,0.8l-0.8,1.4l-0.8-1.6c-0.2-0.3-0.2-0.5-0.2-0.7c0-0.3,0.2-0.4,0.3-0.4h-2.4
				c0.1,0,0.4,0.1,0.9,1.1l1.4,2.6v1.5c0,1-0.4,1-0.5,1.1h2.2c-0.1,0-0.4-0.1-0.4-1.1v-1.6l1.4-2.5c0.5-1,0.9-1.1,0.9-1.1h-1.9
				C31.1,26.1,31.3,26.2,31.3,26.5z"/>
			
				<linearGradient id="SVGID_5_" gradientUnits="userSpaceOnUse" x1="23.1323" y1="773.575" x2="23.1323" y2="738.6272" gradientTransform="matrix(1 0 0 -1 0 783.4433)">
				<stop  offset="0" style="stop-color:#C9A75F"/>
				<stop  offset="1" style="stop-color:#413422"/>
			</linearGradient>
			<path class="st4" d="M23.1,7.3h-3.3c0.1,0,0.7,0.2,0.7,1.2V13c0,1.2-0.5,1.3-0.6,1.3h6.2l0.4-1.8c-0.5,0.8-0.9,0.8-2.2,0.8h-1.8
				V8.5C22.4,7.4,23,7.3,23.1,7.3z"/>
			
				<linearGradient id="SVGID_6_" gradientUnits="userSpaceOnUse" x1="12.2105" y1="773.575" x2="12.2105" y2="738.6272" gradientTransform="matrix(1 0 0 -1 0 783.4433)">
				<stop  offset="0" style="stop-color:#C9A75F"/>
				<stop  offset="1" style="stop-color:#413422"/>
			</linearGradient>
			<path class="st5" d="M6.7,20.1c0.1-1.6,0.1-2,0.2-2.4c0.7-0.3,1.9-0.9,3-1.4c2.3-1.1,4.4-2.1,6.7-3.2c0.4-0.2,0.6-0.3,0.8-0.4
				c0-0.2-0.1-0.4-0.1-0.6c-0.2-2.9,1-5.2,3.8-6.3c-0.1-1.2-0.2-2.3-0.3-3.7c-3.6,4.2-8,7-13,9.3c0.9-3.4,2.9-5.8,5.6-7.9
				c-0.6,0.1-0.9,0.1-1.3,0.2c-0.1,0-0.3,0.1-0.4,0.1C8,4.8,5.7,7.5,4.4,11c-1.3,3.6-1.3,7.2-1.1,11c0.3,5.1,2.7,8.8,5,13.2
				c0,0,0.3,0.5,0.5,0.6c-0.1-0.4-0.2-0.8-0.3-1.1C7.1,29.9,6.6,25.2,6.7,20.1z"/>
			
				<linearGradient id="SVGID_7_" gradientUnits="userSpaceOnUse" x1="22.5561" y1="773.575" x2="22.5561" y2="738.6272" gradientTransform="matrix(1 0 0 -1 0 783.4433)">
				<stop  offset="0" style="stop-color:#C9A75F"/>
				<stop  offset="1" style="stop-color:#413422"/>
			</linearGradient>
			<path class="st6" d="M36.7,29c0.1-0.8,0.2-1.6,0.2-2.4v-8.1c0-0.1,0-0.2-0.1-0.2l-9-4.4c-0.1,0-0.1,0-0.2,0h-0.1
				c-0.1,0-0.1,0-0.2,0.1l-0.2,0.3c-0.1,0.1-0.2,0.3-0.3,0.4l-0.5,0.6c-0.1,0.1-0.2,0.2-0.3,0.3l-0.5,0.5c-0.1,0.1-0.2,0.1-0.3,0.2
				l-0.4,0.3c-0.2,0.1-0.3,0.2-0.5,0.2l-0.1,0c-0.3,0.1-0.7,0.2-1.1,0.2h-0.6H22c-0.4,0-0.7-0.1-1.1-0.2l-0.1,0
				c-0.2-0.1-0.3-0.1-0.5-0.2l-0.4-0.3c-0.1-0.1-0.2-0.1-0.3-0.2L19,15.5c-0.1-0.1-0.2-0.2-0.3-0.3l-0.5-0.6
				c-0.1-0.1-0.2-0.3-0.3-0.4L17.8,14c0-0.1-0.1-0.1-0.2-0.1h-0.1c-0.1,0-0.1,0-0.2,0l-9,4.4c-0.1,0-0.1,0.1-0.1,0.2v8.1
				c0,0.8,0.1,1.6,0.2,2.4l0.2,1.5c0,0.3,0.1,0.5,0.1,0.8l0.6,2.5c0.1,0.3,0.2,0.7,0.3,1l0.3,1c0.1,0.3,0.2,0.6,0.3,0.8L11,38
				c0.6,1.3,1.3,2.5,2.2,3.6l0.2,0.2c0.5,0.6,1,1.2,1.6,1.7l3,2.6l4.6,3.7l4.6-3.7l3-2.6c0.6-0.5,1.1-1.1,1.6-1.7l0.2-0.2
				c0.9-1.1,1.6-2.3,2.2-3.6l0.6-1.4c0.1-0.3,0.2-0.6,0.3-0.8l0.3-1c0.1-0.3,0.2-0.7,0.3-1l0.6-2.5c0.1-0.3,0.1-0.5,0.1-0.8L36.7,29
				z M33.8,26.3c0,0.3,0,0.6-0.1,0.9c0,0.3-0.1,0.7-0.1,0.9l-0.1,1.3c-0.1,1.4-0.4,2.7-0.8,4l-0.3,1c-0.1,0.4-0.3,0.7-0.4,1
				l-0.4,0.9c-0.2,0.4-0.4,0.8-0.7,1.2l-0.7,1c-0.2,0.3-0.4,0.6-0.9,1.1l-1.8,2c-0.4,0.4-0.8,0.8-1.2,1.1l-1.8,1.7l-2.2,2.2
				l-2.2-2.2l-1.8-1.7c-0.4-0.4-0.8-0.7-1.2-1.1l-1.8-2c-0.5-0.6-0.7-0.9-0.9-1.1l-0.7-1c-0.3-0.4-0.5-0.8-0.7-1.2l-0.4-0.9
				c-0.2-0.3-0.3-0.7-0.4-1l-0.3-1c-0.4-1.3-0.6-2.6-0.8-4l-0.1-1.3c0-0.3-0.1-0.7-0.1-0.9c0-0.3,0-0.6-0.1-0.9v-6
				c0-0.1,0.1-0.2,0.1-0.2l5.5-2.5l0.1,0.1c0.1,0.1,0.2,0.2,0.3,0.3l0.2,0.2c0.3,0.2,0.5,0.5,0.8,0.6l0.4,0.3l0.2,0.1
				c0.2,0.1,0.4,0.2,0.5,0.3c0.1,0,0.1,0.1,0.2,0.1c0.2,0.1,0.4,0.2,0.6,0.2l0.2,0.1c0.1,0,0.6,0.1,0.9,0.2c0.1,0,0.1,0,0.2,0l1,0.2
				l1-0.2c0.1,0,0.1,0,0.2,0c0.3-0.1,0.8-0.2,0.9-0.2l0.2-0.1c0.2-0.1,0.4-0.1,0.6-0.2c0.1,0,0.1-0.1,0.2-0.1
				c0.2-0.1,0.4-0.2,0.5-0.3l0.2-0.1l0.4-0.3c0.3-0.2,0.6-0.4,0.8-0.6l0.2-0.2c0.1-0.1,0.2-0.2,0.3-0.3l0.1-0.1l5.5,2.5
				c0.1,0,0.1,0.1,0.1,0.2L33.8,26.3L33.8,26.3z"/>
			
				<linearGradient id="SVGID_8_" gradientUnits="userSpaceOnUse" x1="32.9086" y1="773.575" x2="32.9086" y2="738.6272" gradientTransform="matrix(1 0 0 -1 0 783.4433)">
				<stop  offset="0" style="stop-color:#C9A75F"/>
				<stop  offset="1" style="stop-color:#413422"/>
			</linearGradient>
			<path class="st7" d="M40.7,11c-1.3-3.6-3.5-6.2-7.4-7.2c-0.1,0-0.3-0.1-0.4-0.1c-0.3,0-0.6-0.1-1.3-0.2c2.7,2.1,4.6,4.5,5.6,7.9
				c-5-2.4-9.4-5.1-13.1-9.3c-0.1,1.4-0.2,2.5-0.3,3.7c2.8,1.1,4,3.4,3.8,6.3c0,0.2,0,0.4-0.1,0.6c0.2,0.1,0.5,0.2,0.8,0.4
				c2.3,1.1,4.4,2.1,6.7,3.2c1.1,0.5,2.4,1.1,3,1.4c0.1,0.4,0.1,0.8,0.2,2.4c0.1,5-0.4,9.8-1.8,14.5c-0.1,0.4-0.2,0.7-0.3,1.1
				c0.2-0.1,0.5-0.6,0.5-0.6c2.3-4.3,4.6-8.1,5-13.2C42,18.3,42,14.6,40.7,11z"/>
		</g>
	</g>
</g>
<g>
	
		<image style="overflow:visible;opacity:0.71;enable-background:new    ;" width="2488" height="2979" xlink:href="85AE7D9A.png"  transform="matrix(1.814269e-002 0 0 1.816334e-002 42.4716 -3.862322e-003)">
	</image>
	<g>
		<g>
			<linearGradient id="SVGID_9_" gradientUnits="userSpaceOnUse" x1="57.6024" y1="9.25" x2="57.6024" y2="33.9729">
				<stop  offset="0" style="stop-color:#D09E4B"/>
				<stop  offset="1" style="stop-color:#6D4F37"/>
			</linearGradient>
			<path class="st8" d="M58.3,31.5c-1.1,0-1.8-1-1.8-2.3c0-1.3,0.7-2.3,1.8-2.3c0.8,0,1.4,0.5,1.7,1.2v-1.8
				c-0.3-0.2-0.8-0.4-1.6-0.4c-2.1,0-3.2,1.7-3.2,3.4c0,1.6,0.9,3.2,3,3.2c0.8,0,1.5-0.4,1.9-0.9v-1.1
				C59.6,31.2,58.9,31.5,58.3,31.5z"/>
			<linearGradient id="SVGID_10_" gradientUnits="userSpaceOnUse" x1="62.8976" y1="9.25" x2="62.8976" y2="33.9729">
				<stop  offset="0" style="stop-color:#D09E4B"/>
				<stop  offset="1" style="stop-color:#6D4F37"/>
			</linearGradient>
			<path class="st9" d="M62.9,27.8c-1.3,0-2.2,1-2.2,2.4c0,1.3,0.8,2.3,2.1,2.3c1.3,0,2.2-1.1,2.2-2.5
				C65.1,28.8,64.2,27.8,62.9,27.8z M63,31.7c-0.7,0-1.1-0.8-1.1-1.6c0-0.8,0.3-1.4,0.9-1.4c0.7,0,1.1,0.8,1.1,1.6
				C63.9,31.1,63.5,31.7,63,31.7z"/>
			<linearGradient id="SVGID_11_" gradientUnits="userSpaceOnUse" x1="67.4422" y1="9.25" x2="67.4422" y2="33.9729">
				<stop  offset="0" style="stop-color:#D09E4B"/>
				<stop  offset="1" style="stop-color:#6D4F37"/>
			</linearGradient>
			<path class="st10" d="M68.4,31.6h-1.2l2-3.6h-3.5v1.5c0-0.1,0.2-0.8,0.9-0.8h0.9l-2,3.7h3.7v-1.5C69.3,31,69.2,31.6,68.4,31.6z"
				/>
			<linearGradient id="SVGID_12_" gradientUnits="userSpaceOnUse" x1="72.4948" y1="9.25" x2="72.4948" y2="33.9729">
				<stop  offset="0" style="stop-color:#D09E4B"/>
				<stop  offset="1" style="stop-color:#6D4F37"/>
			</linearGradient>
			<path class="st11" d="M73.8,26.5c0,0.2-0.1,0.4-0.3,0.8l-0.8,1.4l-0.8-1.6c-0.2-0.3-0.2-0.5-0.2-0.7c0-0.3,0.2-0.4,0.3-0.4h-2.4
				c0.1,0,0.4,0.1,0.9,1.1l1.4,2.6v1.5c0,1-0.4,1-0.5,1.1h2.2c-0.1,0-0.4-0.1-0.4-1.1v-1.6l1.4-2.5c0.5-1,0.9-1.1,0.9-1.1h-1.9
				C73.6,26.1,73.8,26.2,73.8,26.5z"/>
			<linearGradient id="SVGID_13_" gradientUnits="userSpaceOnUse" x1="65.6039" y1="9.25" x2="65.6039" y2="33.9729">
				<stop  offset="0" style="stop-color:#D09E4B"/>
				<stop  offset="1" style="stop-color:#6D4F37"/>
			</linearGradient>
			<path class="st12" d="M65.6,7.3h-3.3c0.1,0,0.7,0.2,0.7,1.2V13c0,1.2-0.5,1.3-0.6,1.3h6.2l0.4-1.8c-0.5,0.8-0.9,0.8-2.2,0.8h-1.8
				V8.5C64.9,7.4,65.5,7.3,65.6,7.3z"/>
			<linearGradient id="SVGID_14_" gradientUnits="userSpaceOnUse" x1="54.6821" y1="9.25" x2="54.6821" y2="33.9729">
				<stop  offset="0" style="stop-color:#D09E4B"/>
				<stop  offset="1" style="stop-color:#6D4F37"/>
			</linearGradient>
			<path class="st13" d="M49.2,20.1c0.1-1.6,0.1-2,0.2-2.4c0.7-0.3,1.9-0.9,3-1.4c2.3-1.1,4.4-2.1,6.7-3.2c0.4-0.2,0.6-0.3,0.8-0.4
				c0-0.2-0.1-0.4-0.1-0.6c-0.2-2.9,1-5.2,3.8-6.3c-0.1-1.2-0.2-2.3-0.3-3.7c-3.6,4.2-8,7-13,9.3c0.9-3.4,2.9-5.8,5.6-7.9
				c-0.6,0.1-0.9,0.1-1.3,0.2c-0.1,0-0.3,0.1-0.4,0.1c-3.9,1-6.1,3.6-7.4,7.2c-1.3,3.6-1.3,7.2-1.1,11c0.3,5.1,2.7,8.8,5,13.2
				c0,0,0.3,0.5,0.5,0.6c-0.1-0.4-0.2-0.8-0.3-1.1C49.6,29.9,49.1,25.2,49.2,20.1z"/>
			<linearGradient id="SVGID_15_" gradientUnits="userSpaceOnUse" x1="65.0278" y1="9.25" x2="65.0278" y2="33.9729">
				<stop  offset="0" style="stop-color:#D09E4B"/>
				<stop  offset="1" style="stop-color:#6D4F37"/>
			</linearGradient>
			<path class="st14" d="M79.1,29c0.1-0.8,0.2-1.6,0.2-2.4v-8.1c0-0.1,0-0.2-0.1-0.2l-9-4.4c-0.1,0-0.1,0-0.2,0h-0.1
				c-0.1,0-0.1,0-0.2,0.1l-0.2,0.3c-0.1,0.1-0.2,0.3-0.3,0.4l-0.5,0.6c-0.1,0.1-0.2,0.2-0.3,0.3L68,15.9c-0.1,0.1-0.2,0.1-0.3,0.2
				l-0.4,0.3c-0.2,0.1-0.3,0.2-0.5,0.2l-0.1,0c-0.3,0.1-0.7,0.2-1.1,0.2H65h-0.6c-0.4,0-0.7-0.1-1.1-0.2l-0.1,0
				c-0.2-0.1-0.3-0.1-0.5-0.2l-0.4-0.3c-0.1-0.1-0.2-0.1-0.3-0.2l-0.5-0.5c-0.1-0.1-0.2-0.2-0.3-0.3l-0.5-0.6
				c-0.1-0.1-0.2-0.3-0.3-0.4L60.3,14c0-0.1-0.1-0.1-0.2-0.1h-0.1c-0.1,0-0.1,0-0.2,0l-9,4.4c-0.1,0-0.1,0.1-0.1,0.2v8.1
				c0,0.8,0.1,1.6,0.2,2.4l0.2,1.5c0,0.3,0.1,0.5,0.1,0.8l0.6,2.5c0.1,0.3,0.2,0.7,0.3,1l0.3,1c0.1,0.3,0.2,0.6,0.3,0.8l0.6,1.4
				c0.6,1.3,1.3,2.5,2.2,3.6l0.2,0.2c0.5,0.6,1,1.2,1.6,1.7l3,2.6l4.6,3.7l4.6-3.7l3-2.6c0.6-0.5,1.1-1.1,1.6-1.7l0.2-0.2
				c0.9-1.1,1.6-2.3,2.2-3.6l0.6-1.4c0.1-0.3,0.2-0.6,0.3-0.8l0.3-1c0.1-0.3,0.2-0.7,0.3-1l0.6-2.5c0.1-0.3,0.1-0.5,0.1-0.8L79.1,29
				z M76.3,26.3c0,0.3,0,0.6-0.1,0.9c0,0.3-0.1,0.7-0.1,0.9l-0.1,1.3c-0.1,1.4-0.4,2.7-0.8,4l-0.3,1c-0.1,0.4-0.3,0.7-0.4,1
				l-0.4,0.9c-0.2,0.4-0.4,0.8-0.7,1.2l-0.7,1c-0.2,0.3-0.4,0.6-0.9,1.1l-1.8,2c-0.4,0.4-0.8,0.8-1.2,1.1l-1.8,1.7L65,46.8l-2.2-2.2
				l-1.8-1.7c-0.4-0.4-0.8-0.7-1.2-1.1l-1.8-2c-0.5-0.6-0.7-0.9-0.9-1.1l-0.7-1c-0.3-0.4-0.5-0.8-0.7-1.2l-0.4-0.9
				c-0.2-0.3-0.3-0.7-0.4-1l-0.3-1c-0.4-1.3-0.6-2.6-0.8-4l-0.1-1.3c0-0.3-0.1-0.7-0.1-0.9c0-0.3,0-0.6-0.1-0.9v-6
				c0-0.1,0.1-0.2,0.1-0.2l5.5-2.5l0.1,0.1c0.1,0.1,0.2,0.2,0.3,0.3l0.2,0.2c0.3,0.2,0.5,0.5,0.8,0.6l0.4,0.3l0.2,0.1
				c0.2,0.1,0.4,0.2,0.5,0.3c0.1,0,0.1,0.1,0.2,0.1c0.2,0.1,0.4,0.2,0.6,0.2l0.2,0.1c0.1,0,0.6,0.1,0.9,0.2c0.1,0,0.1,0,0.2,0l1,0.2
				l1-0.2c0.1,0,0.1,0,0.2,0c0.3-0.1,0.8-0.2,0.9-0.2l0.2-0.1c0.2-0.1,0.4-0.1,0.6-0.2c0.1,0,0.1-0.1,0.2-0.1
				c0.2-0.1,0.4-0.2,0.5-0.3l0.2-0.1l0.4-0.3c0.3-0.2,0.6-0.4,0.8-0.6l0.2-0.2c0.1-0.1,0.2-0.2,0.3-0.3l0.1-0.1l5.5,2.5
				c0.1,0,0.1,0.1,0.1,0.2L76.3,26.3L76.3,26.3z"/>
			<linearGradient id="SVGID_16_" gradientUnits="userSpaceOnUse" x1="75.3802" y1="9.25" x2="75.3802" y2="33.9729">
				<stop  offset="0" style="stop-color:#D09E4B"/>
				<stop  offset="1" style="stop-color:#6D4F37"/>
			</linearGradient>
			<path class="st15" d="M83.2,11c-1.3-3.6-3.5-6.2-7.4-7.2c-0.1,0-0.3-0.1-0.4-0.1c-0.3,0-0.6-0.1-1.3-0.2c2.7,2.1,4.6,4.5,5.6,7.9
				c-5-2.4-9.4-5.1-13.1-9.3c-0.1,1.4-0.2,2.5-0.3,3.7c2.8,1.1,4,3.4,3.8,6.3c0,0.2,0,0.4-0.1,0.6c0.2,0.1,0.5,0.2,0.8,0.4
				c2.3,1.1,4.4,2.1,6.7,3.2c1.1,0.5,2.4,1.1,3,1.4c0.1,0.4,0.1,0.8,0.2,2.4c0.1,5-0.4,9.8-1.8,14.5c-0.1,0.4-0.2,0.7-0.3,1.1
				c0.2-0.1,0.5-0.6,0.5-0.6c2.3-4.3,4.6-8.1,5-13.2C84.5,18.3,84.5,14.6,83.2,11z"/>
		</g>
	</g>
</g>
</svg>
